<svg xmlns="http://www.w3.org/2000/svg" viewBox="0 0 256 256" focusable="false" color="var(--token-695c10c1-e757-4f87-8353-95a5eb3222a9, rgb(0, 168, 73))" style="user-select: none; width: 100%; height: 100%; display: inline-block; fill: var(--token-695c10c1-e757-4f87-8353-95a5eb3222a9, rgb(0, 168, 73)); color: var(--token-695c10c1-e757-4f87-8353-95a5eb3222a9, rgb(0, 168, 73)); flex-shrink: 0;"><g color="var(--token-695c10c1-e757-4f87-8353-95a5eb3222a9, rgb(0, 168, 73))" weight="bold"><path d="M176.49,95.51a12,12,0,0,1,0,17l-56,56a12,12,0,0,1-17,0l-24-24a12,12,0,1,1,17-17L112,143l47.51-47.52A12,12,0,0,1,176.49,95.51ZM236,128A108,108,0,1,1,128,20,108.12,108.12,0,0,1,236,128Zm-24,0a84,84,0,1,0-84,84A84.09,84.09,0,0,0,212,128Z"></path></g></svg>